<?xml version="1.0" standalone="no"?>
<!DOCTYPE svg PUBLIC "-//W3C//DTD SVG 20010904//EN"
 "http://www.w3.org/TR/2001/REC-SVG-20010904/DTD/svg10.dtd">
<svg version="1.0" xmlns="http://www.w3.org/2000/svg"
 width="674.000000pt" height="674.000000pt" viewBox="0 0 674.000000 674.000000"
 preserveAspectRatio="xMidYMid meet">
<metadata>
Created by potrace 1.14, written by Peter Selinger 2001-2017
</metadata>
<g transform="translate(0.000000,674.000000) scale(0.100000,-0.100000)"
fill="#000000" stroke="none">
<path d="M3080 6730 c-81 -8 -170 -19 -210 -25 -137 -22 -171 -27 -210 -36
-25 -6 -52 -12 -60 -14 -82 -18 -124 -30 -246 -70 -755 -243 -1369 -707 -1804
-1364 -303 -458 -484 -981 -540 -1556 -12 -126 -9 -498 6 -635 71 -659 312
-1245 728 -1766 141 -177 374 -410 524 -523 26 -19 49 -38 52 -41 20 -25 291
-203 410 -269 317 -177 754 -330 1075 -376 22 -3 67 -10 101 -15 157 -25 599
-35 777 -17 642 63 1252 306 1757 700 196 153 392 348 553 549 406 507 655
1117 724 1778 10 99 10 542 0 649 -7 71 -29 216 -52 346 -24 135 -122 467
-165 560 -5 11 -21 49 -35 85 -60 148 -182 375 -288 535 -329 497 -776 895
-1297 1156 -376 188 -700 283 -1170 344 -74 10 -549 13 -630 5z"/>
</g>
</svg>
